<svg width="160" height="160" viewBox="0 0 160 160" fill="none" xmlns="http://www.w3.org/2000/svg">
<circle cx="80" cy="80" r="78" fill="#18181B" stroke="#52525B" stroke-width="4"/>
<path fill-rule="evenodd" clip-rule="evenodd" d="M44 38C37.3726 38 32 43.3726 32 50V110C32 116.627 37.3726 122 44 122H116C122.627 122 128 116.627 128 110V50C128 43.3726 122.627 38 116 38H44ZM62 50L98 50V74H62V50ZM110 98V110H116V98H110ZM98 86H62V110H98V86ZM110 86H116V74H110V86ZM116 62V50H110V62H116ZM50 50V62H44V50H50ZM50 74H44V86H50V74ZM44 98H50V110H44V98Z" fill="#E5E7EB"/>
</svg>
