<?xml version="1.0" standalone="no"?>
<!DOCTYPE svg PUBLIC "-//W3C//DTD SVG 20010904//EN"
 "http://www.w3.org/TR/2001/REC-SVG-20010904/DTD/svg10.dtd">
<svg version="1.0" xmlns="http://www.w3.org/2000/svg"
 width="260.000000pt" height="260.000000pt" viewBox="0 0 260.000000 260.000000"
 preserveAspectRatio="xMidYMid meet">
<metadata>
Created by potrace 1.14, written by Peter Selinger 2001-2017
</metadata>
<g transform="translate(0.000000,260.000000) scale(0.100000,-0.100000)"
fill="#000000" stroke="none">
<path d="M290 1299 l0 -550 283 3 c320 4 341 8 454 92 120 88 183 225 191 417
11 257 -83 451 -260 537 -95 46 -145 52 -418 52 l-250 0 0 -551z m503 315
c112 -38 161 -130 162 -304 0 -133 -17 -201 -63 -252 -61 -68 -100 -82 -239
-86 l-123 -4 0 331 0 331 108 0 c73 0 124 -5 155 -16z"/>
<path d="M1360 1295 l0 -555 120 0 120 0 0 352 c0 213 4 348 9 342 5 -5 97
-162 204 -349 l195 -340 141 -3 141 -3 0 556 0 555 -120 0 -120 0 0 -367 0
-368 -203 365 -202 365 -143 3 -142 3 0 -556z"/>
<path d="M2094 630 c-32 -13 -72 -67 -80 -106 -9 -51 11 -107 51 -143 30 -26
44 -31 89 -31 153 0 213 183 87 267 -35 24 -105 30 -147 13z"/>
</g>
</svg>
