<svg width="160" height="160" viewBox="0 0 160 160" fill="none" xmlns="http://www.w3.org/2000/svg">
<circle cx="80" cy="80" r="78" fill="#18181B" stroke="#52525B" stroke-width="4"/>
<path d="M38 44C38 40.6863 40.6863 38 44 38H116C119.314 38 122 40.6863 122 44V56C122 59.3137 119.314 62 116 62H44C40.6863 62 38 59.3137 38 56V44Z" fill="#E5E7EB"/>
<path d="M38 80C38 76.6863 40.6863 74 44 74H80C83.3137 74 86 76.6863 86 80V116C86 119.314 83.3137 122 80 122H44C40.6863 122 38 119.314 38 116V80Z" fill="#E5E7EB"/>
<path d="M104 74C100.686 74 98 76.6863 98 80V116C98 119.314 100.686 122 104 122H116C119.314 122 122 119.314 122 116V80C122 76.6863 119.314 74 116 74H104Z" fill="#E5E7EB"/>
</svg>
